<?xml version="1.0" encoding="utf-8"?>
<!-- Generator: Adobe Illustrator 19.2.1, SVG Export Plug-In . SVG Version: 6.00 Build 0)  -->
<svg version="1.1" id="Layer_1" xmlns="http://www.w3.org/2000/svg" xmlns:xlink="http://www.w3.org/1999/xlink" x="0px" y="0px"
	 viewBox="0 0 135 118.3" style="enable-background:new 0 0 135 118.3;" xml:space="preserve">
<style type="text/css">
	.st0{fill:#EEEDEA;}
	.st1{fill:#E6E3DF;}
	.st2{fill:#F8F8F8;}
	.st3{fill:#DBE7CB;}
	.st4{fill:#D8EDF1;}
	.st5{fill:#37474F;}
	.st6{fill:#757575;}
	.st7{fill:#E5E5E5;}
	.st8{fill:#424242;}
	.st9{fill:#FFFFFF;}
	.st10{fill:none;stroke:#757575;stroke-width:1.5;stroke-miterlimit:10;stroke-dasharray:3,2;}
</style>
<title>drone-flight</title>
<polygon class="st0" points="4.6,10.1 4.2,108.6 33.9,114 33.5,4.4 "/>
<polygon class="st1" points="67.1,108.2 34,114.1 33.2,4.1 67.5,10.9 "/>
<polygon class="st0" points="101.6,114.6 101.4,4.9 67.4,11.5 67.1,107.8 "/>
<polygon class="st1" points="130.7,10.1 101.2,4.9 101.5,114.6 131.3,105.9 "/>
<path class="st2" d="M100.9,0L67.1,6.2L33.4,0.4L0,7.1v105.6l33.6,5.6l33.9-6l33.4,6l34.1-9L134.7,7.5L100.9,0z M4.7,23.6L33.4,26
	c4.6,1,7.8,5.1,7.7,9.8c-2.8,6.9-7.7,6.6-7.7,6.6L4.3,41.8L4.7,23.6z M4.5,49.3h28.7c17.2-1.9,14.6-16.1,14.6-16.1
	C48,21.6,35.5,19.5,35.5,19.5L4.7,15.5v-5.4L33,4.7l34.3,6.8l33.9-6.6l29.2,5.3V14l-13.1,5.6L92.2,41.6l-4.9-9.2
	c-3.9-5.8-11.8-3-11.8-3L58.7,41c-6.6,4.5-4.5,9.4-4.5,9.4l4.3,9l-13.3,6.4L20.8,90.9L4.5,87.4L4.5,49.3L4.5,49.3z M85.7,45.5
	c0,0-8.1,5.1-8.6,5.2S64.9,56,64.9,56l-2.6-4.5c-3.2-4.3,0.8-5.2,0.8-5.2l10.1-7.5c8.2-6.2,9-0.9,9-0.9L85.7,45.5z M6.2,108.5V94.7
	l13.5,2.1L30,113.2L6.2,108.5z M101.8,114.4L67,107.8L37.1,113L26.4,93.9l23.2-22.5l39.6-19.5l3,10.1l8.1,5.6l30,6.6l0.5,31.7
	L101.8,114.4z M130.5,66.4l-29.4-6.8l-2.2-2.2c0,0-4.7-9.2-3-9.4s26.6-22.5,26.6-22.5l8.2-3L130.5,66.4z"/>
<polygon class="st0" points="110.1,79.7 111.2,73.9 124.4,77.1 123.4,79.7 119.7,80.2 119.1,83.8 "/>
<path class="st1" d="M9.4,53.2v4.7h13.3v-4.5C22.8,53.4,9.2,53.5,9.4,53.2z"/>
<polygon class="st3" points="9.6,74.2 9.8,82.7 19.9,84.8 29.7,75.4 29.7,69.2 26.7,65.2 17.3,65.2 15.1,70.9 11.9,70.9 "/>
<polygon class="st0" points="41.7,86.2 49.7,78.3 52.8,81.4 50.7,83.4 52.9,85.7 49.4,89.2 47.2,87.1 44.3,90 "/>
<polygon class="st3" points="72.2,77.8 77.5,75.2 77.5,66.9 82.4,62.1 86.7,62.1 96.9,72.3 96.9,107.2 85.9,105.9 83.1,98.1 
	72.8,94.7 "/>
<path class="st4" d="M130.6,59.4c0,0-5.2-0.9-6.6-0.9s-5.4,1.7-11.8-0.2s-6-8.1-5.8-10.3s9-9.6,9-9.6s7.5-6.2,8.8-7.3
	s6.1-1.6,6.1-1.6L130.6,59.4z"/>
<path class="st5" d="M62.6,49.8"/>
<path class="st5" d="M63.6,49.6"/>
<path class="st2" d="M19.1,12.8c0,1.7,1.4,3.1,3.1,3.1c0,0,0,0,0.1,0V9.7C20.5,9.6,19.1,11,19.1,12.8C19.1,12.7,19.1,12.8,19.1,12.8
	z"/>
<path class="st6" d="M19.2,12.8c0-1.7,1.4-3.1,3.1-3.1c0,0,0,0,0.1,0V4.8c-4.5,0.1-8.1,3.7-8.1,8.2c0,1.4,0.3,2.8,1,4l7.1,12.3V15.9
	C20.6,15.9,19.2,14.6,19.2,12.8C19.2,12.8,19.2,12.8,19.2,12.8z"/>
<path class="st7" d="M25.5,12.8c0,1.7-1.4,3.1-3.1,3.1c0,0,0,0-0.1,0V9.7C24,9.6,25.4,11,25.5,12.8C25.5,12.7,25.5,12.8,25.5,12.8z"
	/>
<path class="st8" d="M25.4,12.8c0-1.7-1.4-3.1-3.1-3.1c0,0,0,0-0.1,0V4.8c4.5,0.1,8.1,3.7,8.1,8.2c0,1.4-0.3,2.8-1,4l-7.1,12.3V15.9
	C24,15.9,25.4,14.6,25.4,12.8C25.4,12.8,25.4,12.8,25.4,12.8z"/>
<circle class="st9" cx="22.3" cy="13.2" r="4.1"/>
<path class="st2" d="M109.8,90.9c0,1.7,1.4,3.1,3.1,3.1c0,0,0,0,0.1,0v-6.3C111.2,87.7,109.8,89.1,109.8,90.9
	C109.8,90.8,109.8,90.9,109.8,90.9z"/>
<path class="st6" d="M109.9,90.9c0-1.7,1.4-3.1,3.1-3.1c0,0,0,0,0.1,0v-4.9c-4.5,0.1-8.1,3.7-8.1,8.2c0,1.4,0.3,2.8,1,4l7.1,12.3V94
	C111.3,94,109.9,92.6,109.9,90.9C109.9,90.9,109.9,90.9,109.9,90.9z"/>
<path class="st7" d="M116.1,90.9c0,1.7-1.4,3.1-3.1,3.1c0,0,0,0-0.1,0v-6.3C114.7,87.7,116.1,89.1,116.1,90.9
	C116.2,90.8,116.2,90.9,116.1,90.9z"/>
<path class="st8" d="M116.1,90.9c0-1.7-1.4-3.1-3.1-3.1c0,0,0,0-0.1,0v-4.9c4.5,0.1,8.1,3.7,8.1,8.2c0,1.4-0.3,2.8-1,4l-7.1,12.3
	V94.1C114.7,94.1,116.1,92.7,116.1,90.9C116.1,91,116.1,90.9,116.1,90.9z"/>
<circle class="st9" cx="113" cy="91.3" r="4.1"/>
<g>
	<path d="M66,63.1c-0.1-0.1-0.2-0.1-0.3-0.2c-0.3-0.3-0.6-0.5-0.9-0.6c-0.1,0-0.4-0.1-0.7-0.1c0,0-0.1,0-0.1,0c0,0-0.1,0-0.1,0
		c0,0,0,0,0,0l0,0c-0.2,0-0.6,0.1-0.6,0.1c-0.4,0.1-0.6,0.4-0.9,0.6c-0.1,0.1-0.2,0.2-0.3,0.2c-0.6,0.5-1.3,1.1-2,1.6L59.8,65
		c0.2,0.5,0.5,1.1,0.6,1.7c0,0.2,0.2,0.4,0.4,0.4H64h3.4c0.2,0,0.4-0.2,0.4-0.4c0.1-0.6,0.3-1.2,0.6-1.7L68,64.7
		C67.3,64.2,66.7,63.6,66,63.1z"/>
	<path d="M41.5,50.9c0.7,0,1.6,0.1,2.5,0.2c1,0.1,2.1,0.3,3.3,0.5c0.6,0.1,1.2,0.3,1.8,0.5c0.3,0.1,0.6,0.2,0.9,0.4
		c0.3,0.1,0.6,0.3,0.8,0.5c0.1,0.1,0.2,0.2,0.3,0.3c0,0.1,0,0.1,0.1,0.1l0,0.1l0,0l0,0l0,0c0,0.1-0.1,0.2-0.2,0.3
		c-0.1,0.1-0.2,0.2-0.3,0.3c-0.5,0.4-1.2,0.7-1.9,0.9c-0.3,0.1-0.7,0.2-1,0.3c0.2,0.1,0.3,0.3,0.4,0.4c0.3-0.1,0.5-0.1,0.8-0.2
		c0.7-0.2,1.5-0.5,2.1-1c0.2-0.1,0.3-0.3,0.4-0.4c0.1-0.2,0.2-0.4,0.3-0.6l0-0.1l0,0l0,0c0,0,0-0.1,0,0l0-0.1c0-0.1-0.1-0.3-0.1-0.3
		c-0.1-0.2-0.3-0.3-0.4-0.5c-0.3-0.2-0.6-0.4-0.9-0.6c-0.3-0.1-0.6-0.3-1-0.4c-0.6-0.2-1.3-0.3-1.9-0.4c-1.2-0.2-2.3-0.3-3.3-0.3
		C43.1,50.8,42.2,50.8,41.5,50.9c-0.4-0.1-0.8-0.1-1.1-0.1c0,0,0.1,0,0.1,0.1C40.8,50.9,41.2,50.9,41.5,50.9z"/>
	<path d="M28,54.9c-0.1-0.1-0.3-0.2-0.4-0.3c0-0.1-0.1-0.1-0.1-0.2c0,0,0-0.1,0-0.1c0,0,0,0,0-0.1c0-0.2,0-0.3,0.1-0.4
		c0.1-0.1,0.2-0.2,0.3-0.3c0.5-0.4,1.1-0.7,1.7-0.9c0.6-0.2,1.2-0.4,1.8-0.6c0.9-0.2,1.8-0.4,2.6-0.6c-0.1-0.1-0.2-0.2-0.3-0.2
		c-0.8,0.1-1.6,0.2-2.4,0.4c-0.6,0.1-1.2,0.3-1.8,0.5c-0.3,0.1-0.6,0.2-0.9,0.4c-0.3,0.2-0.6,0.3-0.9,0.6c-0.1,0.1-0.3,0.3-0.4,0.5
		c-0.1,0.1-0.1,0.2-0.1,0.3l0,0.2c0,0,0,0,0,0l0,0l0,0l0,0.1c0.1,0.5,0.4,0.7,0.8,1c0.7,0.4,1.4,0.6,2.1,0.8
		c0.6,0.1,1.2,0.3,1.8,0.4l0.1-0.2c-0.6-0.1-1.3-0.3-1.9-0.5C29.3,55.6,28.6,55.3,28,54.9z"/>
	<path d="M38.9,70.3L38.9,70.3c-1.5,0-2.6-0.3-3.2-0.4c0.5,1.6,1.7,2.9,3.2,2.9c1.5,0,2.7-1.3,3.2-2.9C41,70.1,39.9,70.3,38.9,70.3
		C38.9,70.3,38.9,70.3,38.9,70.3z"/>
	<path d="M38.9,61.4c0.9,0,1.7,0.1,2.3,0.2v-4c0-0.3-0.2-0.5-0.5-0.5h-1.8h0h-1.8c-0.3,0-0.5,0.2-0.5,0.5v4
		C37.1,61.5,38,61.4,38.9,61.4L38.9,61.4C38.9,61.4,38.9,61.4,38.9,61.4z"/>
	<path d="M38.9,57h1.2c0-0.1,0-0.2,0-0.3v-1.9l0.5,0.2l8-0.9l0.7-0.5l-7.7-0.2L40,53.6c-0.2-0.4-0.6-0.7-1.1-0.7h0c0,0,0,0,0,0v0.8
		v0.5V57z"/>
	<path d="M29.1,54.2l8,0.9l0.5-0.2v1.9c0,0.1,0,0.2,0,0.3h1.2v-4c-0.5,0-0.9,0.3-1.1,0.7l-1.7-0.2l-7.7,0.2L29.1,54.2z"/>
	<path d="M102.2,53.5l0-0.1c0-0.1-0.1-0.3-0.1-0.3c-0.1-0.2-0.3-0.3-0.4-0.5c-0.3-0.2-0.6-0.4-0.9-0.6c-0.3-0.1-0.6-0.3-1-0.4
		c-0.6-0.2-1.3-0.3-1.9-0.4c-1.2-0.2-2.3-0.3-3.3-0.3c-1-0.1-1.9-0.1-2.6-0.1c-0.4,0-0.8,0-1.1,0c0,0,0.1,0,0.1,0.1
		c0.3,0,0.6,0,0.9,0c0.7,0,1.6,0.1,2.5,0.2c1,0.1,2.1,0.3,3.3,0.5c0.6,0.1,1.2,0.3,1.8,0.5c0.3,0.1,0.6,0.2,0.9,0.4
		c0.3,0.1,0.6,0.3,0.8,0.5c0.1,0.1,0.2,0.2,0.3,0.3c0,0.1,0,0.1,0.1,0.1l0,0.1l0,0l0,0l0,0c0,0.1-0.1,0.2-0.2,0.3
		c-0.1,0.1-0.2,0.2-0.3,0.3c-0.5,0.4-1.2,0.7-1.9,0.9c-0.3,0.1-0.7,0.2-1,0.3c0.2,0.1,0.3,0.3,0.4,0.4c0.3-0.1,0.5-0.1,0.8-0.2
		c0.7-0.2,1.5-0.5,2.1-1c0.2-0.1,0.3-0.3,0.4-0.4c0.1-0.2,0.2-0.4,0.3-0.6l0-0.1L102.2,53.5L102.2,53.5
		C102.2,53.6,102.2,53.5,102.2,53.5z"/>
	<path d="M77.5,54.2L77.5,54.2L77.5,54.2c0.1,0.6,0.5,0.8,0.8,1.1c0.7,0.4,1.4,0.6,2.1,0.8c0.6,0.1,1.2,0.3,1.8,0.4l0.1-0.2
		c-0.6-0.1-1.3-0.3-1.9-0.5c-0.7-0.2-1.4-0.5-2-0.9c-0.1-0.1-0.3-0.2-0.4-0.3c0-0.1-0.1-0.1-0.1-0.2c0,0,0-0.1,0-0.1c0,0,0,0,0-0.1
		c0-0.2,0-0.3,0.1-0.4c0.1-0.1,0.2-0.2,0.3-0.3c0.5-0.4,1.1-0.7,1.7-0.9c0.6-0.2,1.2-0.4,1.8-0.6c0.9-0.2,1.8-0.4,2.6-0.6
		c-0.1-0.1-0.2-0.2-0.3-0.2c-0.8,0.1-1.6,0.2-2.4,0.4c-0.6,0.1-1.2,0.3-1.8,0.5c-0.3,0.1-0.6,0.2-0.9,0.4c-0.3,0.2-0.6,0.3-0.9,0.6
		c-0.1,0.1-0.3,0.3-0.4,0.5c-0.1,0.1-0.1,0.2-0.1,0.3L77.5,54.2C77.5,54.1,77.5,54.1,77.5,54.2L77.5,54.2z"/>
	<path d="M89.3,70.3L89.3,70.3c-1.5,0-2.6-0.3-3.2-0.4c0.5,1.6,1.7,2.9,3.2,2.9c0,0,0,0,0,0c0,0,0,0,0,0c1.5,0,2.7-1.3,3.2-2.9
		C91.5,70.1,90.4,70.3,89.3,70.3C89.4,70.3,89.4,70.3,89.3,70.3z"/>
	<path d="M89.4,61.4c0.9,0,1.7,0.1,2.3,0.2v-4c0-0.3-0.2-0.5-0.5-0.5h-1.8h-1.8c-0.3,0-0.5,0.2-0.5,0.5v4
		C87.6,61.5,88.4,61.4,89.4,61.4L89.4,61.4C89.3,61.4,89.3,61.4,89.4,61.4z"/>
	<path d="M86,61.9c0,0,0,0.8,0,1.9c0-0.4,0-0.7,0-1L70.8,55l-6.7-2.3v0l0,0l0,0v0L57.3,55l-15.1,7.8v-0.9h-3.4h0h-3.3c0,0,0,7,0,7.1
		v0h0c0,0,0,0,0,0c0.4,0.1,1.7,0.5,3.3,0.5v0c1,0,2.2-0.1,3.4-0.5c0,0,0,0,0,0h0v0c0-0.1,0-0.1,0-0.2l13.6-5.1l2.5,0.1l0.8,0.8
		c0.1-0.1,0.3-0.2,0.4-0.3c0.8-0.6,1.7-1.3,2.5-1.9c0.4-0.3,0.7-0.7,1.3-0.9c0,0,0.6-0.1,0.8-0.1c0,0,0,0,0,0v0c0-0.1,0.8,0,0.8,0.1
		c0.5,0.2,0.9,0.6,1.3,0.9c0.8,0.7,1.6,1.3,2.5,2c0.1,0.1,0.3,0.2,0.4,0.3l0.8-0.8l2.5-0.1L86,68.9c0,0,0,0,0-0.1c0,0.1,0,0.2,0,0.2
		v0h0c0,0,0,0,0,0c0.4,0.1,1.7,0.5,3.3,0.5v0c1,0,2.2-0.1,3.4-0.5c0,0,0,0,0,0h0v0c0-0.1,0-0.2,0-0.3v-6.8h-3.4H86z M44.6,66.8
		c0,0-0.6,0.1-0.6-0.4l0.1-3c0-0.1,0.1-0.3,0.2-0.3c0,0,4.5-2.3,4.5-2.3c0,0,0.9-0.3,0.5,0.6L46.6,66L44.6,66.8z M54.5,58.5
		l-1.3,4.9c0,0.1-0.1,0.1-0.1,0.1l-3.8,1.4c-0.2,0.1-0.4-0.1-0.3-0.3l2.9-5.6c0,0,0.1-0.1,0.1-0.1l2-1C54.3,58,54.6,58.2,54.5,58.5z
		 M67.1,57.7h-3.1v0h0h-3c0,0-0.8-0.9-1.2-2.1l0,0c0,0,0,0,0,0c1.5-0.6,3-1.2,4.2-1.2l0,0c0,0,0,0,0,0v0c0,0,0,0,0,0c0,0,0,0,0,0
		l0,0c1.2,0,2.7,0.6,4.2,1.2C67.9,56.8,67.1,57.7,67.1,57.7z M86,64.1c0,0.3,0,0.6,0,0.9C86,64.7,86,64.4,86,64.1z M86,65.6
		C86,65.6,86,65.6,86,65.6C86,65.6,86,65.6,86,65.6z M86,66c0,0.1,0,0.1,0,0.2C86,66.1,86,66,86,66z M78.9,65.1l-3.8-1.4
		c-0.1,0-0.1-0.1-0.1-0.1l-1.3-4.9c-0.1-0.3,0.2-0.6,0.5-0.4l2,1c0,0,0.1,0.1,0.1,0.1l2.9,5.6C79.3,64.9,79.1,65.1,78.9,65.1z
		 M83.6,66.8L81.5,66l-2.7-4.6c-0.3-0.9,0.5-0.6,0.5-0.6c0,0,4.5,2.3,4.5,2.3c0.1,0.1,0.2,0.2,0.2,0.3l0.1,3
		C84.1,66.9,83.6,66.8,83.6,66.8z M86,67.1c0,0.1,0,0.2,0,0.3C86,67.3,86,67.2,86,67.1z M86,68.8C86,68.8,86,68.8,86,68.8
		C86,68.8,86,68.8,86,68.8z M86,68.4C86,68.4,86,68.4,86,68.4C86,68.4,86,68.4,86,68.4z"/>
	<path d="M89.3,57h1.2c0-0.1,0-0.2,0-0.3v-1.9l0.5,0.2l8-0.9l0.7-0.5l-7.7-0.2l-1.7,0.2c-0.2-0.4-0.6-0.7-1.1-0.7h0c0,0,0,0,0,0v0.8
		v0.5V57z"/>
	<path d="M79.5,54.2l8,0.9l0.5-0.2v1.9c0,0.1,0,0.2,0,0.3h1.2v-4c-0.5,0-0.9,0.3-1.1,0.7l-1.7-0.2l-7.7,0.2L79.5,54.2z"/>
</g>
<path class="st10" d="M24,28.8c0,0,27-2.2,36,21"/>
<path class="st10" d="M109.2,107c0,0-35.8,5-44.5-36.5"/>
</svg>
